# xmcd
#
# Track frame offsets: 
#        150
#        26727
#        55977
#        78225
#        93824
#        108002
#        134835
#        157121
#        183221
#        202290
#
# Disc length: 2990 seconds
#
# Revision: 5
# Processed by: cddbd v1.5.2PL0 Copyright (c) Steve Scherf et al.
# Submitted via: ExactAudioCopy v1.3
#
DISCID=850bac0a
DTITLE=Darkwood Dub - Zivot pocinje u 30oj
DYEAR=2002
DGENRE=Alternative
TTITLE0=Vrlog vira
TTITLE1=Steppin' Out
TTITLE2=Nova dostignuca
TTITLE3=Srebrna kap
TTITLE4=Repetitor
TTITLE5=M.Jugin
TTITLE6=Baobab
TTITLE7=Dnevnik
TTITLE8=Dorlcolac
TTITLE9=Zivot pocinje u 30oj
EXTD=YEAR: 2002
EXTT0=
EXTT1=
EXTT2=
EXTT3=
EXTT4=
EXTT5=
EXTT6=
EXTT7=
EXTT8=
EXTT9=
PLAYORDER=
